<?xml version="1.0" encoding="iso-8859-1"?>
<!-- Generator: Adobe Illustrator 18.0.0, SVG Export Plug-In . SVG Version: 6.00 Build 0)  -->
<!DOCTYPE svg PUBLIC "-//W3C//DTD SVG 1.1//EN" "http://www.w3.org/Graphics/SVG/1.1/DTD/svg11.dtd">
<svg version="1.1" id="Capa_1" xmlns="http://www.w3.org/2000/svg" xmlns:xlink="http://www.w3.org/1999/xlink" x="0px" y="0px"
	 viewBox="0 0 489.398 489.398" style="enable-background:new 0 0 489.398 489.398;" xml:space="preserve">
<path d="M106.47,31.234l-38.861-8.266c-3.057-0.653-6.222,0.417-8.25,2.794L10.257,83.324c-2.832,3.32-2.69,8.245,0.329,11.396
	l17.834,18.62l-7.544,4.122c-3.905,2.134-5.503,6.918-3.665,10.971l40.104,88.386c1.014,2.236,2.946,3.924,5.298,4.629
	c0.8,0.24,1.623,0.358,2.441,0.358c1.587,0,3.16-0.444,4.53-1.308l43.314-27.28l170.507,162.023l-28.158,17.734
	c-1.985,1.25-3.365,3.266-3.813,5.569c-0.448,2.303,0.076,4.689,1.448,6.593l49.711,68.978c1.647,2.287,4.245,3.531,6.9,3.531
	c1.384,0,2.782-0.338,4.071-1.042l1.35-0.737l34.305,31.309c1.572,1.436,3.618,2.222,5.729,2.222c0.264,0,0.528-0.012,0.794-0.037
	c2.385-0.224,4.564-1.443,6.003-3.359l21.182-27.836l38.862,8.264c0.593,0.127,1.19,0.189,1.782,0.189
	c2.459,0,4.833-1.068,6.467-2.983l49.102-57.561c2.832-3.32,2.69-8.245-0.328-11.397l-17.835-18.62l7.545-4.122
	c3.738-2.043,5.387-6.538,3.857-10.513l-35.085-91.116c-0.914-2.373-2.842-4.211-5.254-5.013c-2.412-0.8-5.058-0.48-7.209,0.874
	l-46.306,29.164L203.066,136.43l36.103-22.739c2.068-1.303,3.476-3.432,3.863-5.846c0.387-2.413-0.283-4.876-1.839-6.76
	l-54.729-66.246c-2.595-3.141-7.053-3.999-10.629-2.045l-1.35,0.738L140.18,2.222c-1.77-1.615-4.138-2.408-6.523-2.184
	c-2.385,0.224-4.565,1.443-6.003,3.359L106.47,31.234z M135.63,21.085l23.08,21.065L92.749,78.191L135.63,21.085z M57.416,97.056
	l-13.543,7.841L28.178,88.51l40.823-47.856l26.419,5.668L57.416,97.056z M68.77,200.922l-32.816-72.327l141.874-77.518
	l44.101,53.382L68.77,200.922z M127.742,183.871l60.388-38.034l175.46,158.903l-65.341,41.153L127.742,183.871z M271.964,382.539
	l153.18-96.477l28.696,74.524l-141.842,77.503L271.964,382.539z M353.77,468.314l-23.081-21.064l65.961-36.042L353.77,468.314z
	 M431.982,392.343l13.543-7.841l15.695,16.386l-40.823,47.857l-26.419-5.667L431.982,392.343z"/>
<g>
</g>
<g>
</g>
<g>
</g>
<g>
</g>
<g>
</g>
<g>
</g>
<g>
</g>
<g>
</g>
<g>
</g>
<g>
</g>
<g>
</g>
<g>
</g>
<g>
</g>
<g>
</g>
<g>
</g>
</svg>
